<svg xmlns="http://www.w3.org/2000/svg" width="256" height="256" viewBox="0 0 256 256">
  <defs>
    <linearGradient id="face" x1="0" y1="0" x2="0" y2="1"><stop stop-color="#FFC56A"/><stop offset="0.52" stop-color="#F28B32"/><stop offset="1" stop-color="#B9521E"/></linearGradient>
    <linearGradient id="shine" x1="0" y1="0" x2="0.8" y2="1"><stop stop-color="#fff" stop-opacity=".62"/><stop offset=".42" stop-color="#fff" stop-opacity=".08"/><stop offset="1" stop-color="#fff" stop-opacity="0"/></linearGradient>
    <filter id="shadow" x="-20%" y="-20%" width="140%" height="160%"><feDropShadow dx="0" dy="10" stdDeviation="9" flood-color="#071226" flood-opacity=".34"/></filter>
  </defs>
  <rect x="17" y="13" width="222" height="226" rx="50" fill="url(#face)" filter="url(#shadow)"/>
  <rect x="24" y="20" width="208" height="205" rx="43" fill="none" stroke="#fff" stroke-opacity=".24" stroke-width="5"/>
  <path d="M43 49c30-29 131-32 169-2 11 9 8 29-4 38-37-20-111-17-158 6-18-10-23-29-7-42Z" fill="url(#shine)"/>
  <path d="M48 203c45 14 118 14 160-1" fill="none" stroke="#071226" stroke-opacity=".22" stroke-width="8" stroke-linecap="round"/>
  <circle cx="195" cy="54" r="10" fill="#fff" fill-opacity=".76"/><circle cx="181" cy="68" r="5" fill="#fff" fill-opacity=".38"/>
</svg>